# xmcd
#
# Track frame offsets:
#	150
#	14434
#	31637
#	52396
#	65588
#	78315
#	91680
#	107939
#	126483
#	141624
#	159868
#	172468
#	186345
#
# Disc length: 2659 seconds
#
# Revision: 1
# Processed by: cddbd v1.5.1PL2 Copyright (c) Steve Scherf et al.
# Submitted via: EasyCDDAExtractor 7.0.5.4
#
DISCID=bd0a610d
DTITLE=Sawyer Brown - The Boys Are Back
DYEAR=1989
DGENRE=Country
TTITLE0=Puttin' the Dark Back Into the Night
TTITLE1=Rosie Knows
TTITLE2=I Did It for Love
TTITLE3=The Race Is On
TTITLE4=Hey, Hey
TTITLE5=Good While It Lasted
TTITLE6=Locomotive
TTITLE7=The Heartland
TTITLE8=I'm Gonna Miss You After All
TTITLE9=Gettin' Tough
TTITLE10=When Love Comes Callin'
TTITLE11=Leona
TTITLE12=Hard Hard World
EXTD=
EXTT0=
EXTT1=
EXTT2=
EXTT3=
EXTT4=
EXTT5=
EXTT6=
EXTT7=
EXTT8=
EXTT9=
EXTT10=
EXTT11=
EXTT12=
PLAYORDER=
